<?xml version="1.0" encoding="UTF-8" standalone="no"?>
<!-- Created with Inkscape (http://www.inkscape.org/) -->
<svg
   xmlns:dc="http://purl.org/dc/elements/1.1/"
   xmlns:cc="http://creativecommons.org/ns#"
   xmlns:rdf="http://www.w3.org/1999/02/22-rdf-syntax-ns#"
   xmlns:svg="http://www.w3.org/2000/svg"
   xmlns="http://www.w3.org/2000/svg"
   xmlns:xlink="http://www.w3.org/1999/xlink"
   xmlns:sodipodi="http://sodipodi.sourceforge.net/DTD/sodipodi-0.dtd"
   xmlns:inkscape="http://www.inkscape.org/namespaces/inkscape"
   width="700"
   height="500"
   id="svg2"
   sodipodi:version="0.32"
   inkscape:version="0.46"
   sodipodi:docname="Super Jesus.svg"
   inkscape:output_extension="org.inkscape.output.svg.inkscape"
   version="1.0"
   inkscape:export-filename="E:\Images\Vector\For OCAL\Super Jesus.png"
   inkscape:export-xdpi="39.959999"
   inkscape:export-ydpi="39.959999">
  <defs
     id="defs4">
    <inkscape:perspective
       sodipodi:type="inkscape:persp3d"
       id="perspective10"
       inkscape:vp_x="-50 : 600 : 1"
       inkscape:vp_y="0 : 1000 : 0"
       inkscape:vp_z="700 : 600 : 1"
       inkscape:persp3d-origin="300 : 400 : 1" />
    <linearGradient
       gradientTransform="matrix(0.999823,0,0,1.118595,9.302804e-2,-86.56476)"
       gradientUnits="userSpaceOnUse"
       xlink:href="#linearGradient6756"
       id="linearGradient4898"
       y2="461.30261"
       x2="800.01562"
       y1="115.21933"
       x1="99.984344" />
    <linearGradient
       gradientTransform="matrix(0.999823,0,0,1.118595,9.302805e-2,-86.56476)"
       gradientUnits="userSpaceOnUse"
       xlink:href="#linearGradient3228"
       id="linearGradient4893"
       y2="467.69955"
       x2="838.95087"
       y1="127.69955"
       x1="61.0625" />
    <linearGradient
       gradientTransform="matrix(0.883467,0,0,0.966835,50.2821,0.472313)"
       gradientUnits="userSpaceOnUse"
       xlink:href="#linearGradient7655"
       id="linearGradient4876"
       y2="585.9975"
       x2="841.18512"
       y1="585.9975"
       x1="225.46132" />
    <linearGradient
       gradientTransform="matrix(0.883467,0,0,0.966835,46.2821,0.472313)"
       gradientUnits="userSpaceOnUse"
       xlink:href="#linearGradient7655"
       id="linearGradient4874"
       y2="61.360378"
       x2="852.37842"
       y1="61.360378"
       x1="148.54547" />
    <linearGradient
       gradientTransform="matrix(1.026499,0,0,1.025401,-8.896582,-14.9155)"
       gradientUnits="userSpaceOnUse"
       xlink:href="#linearGradient3228"
       id="linearGradient4872"
       y2="467.69955"
       x2="838.95087"
       y1="127.69955"
       x1="61.0625" />
    <linearGradient
       gradientTransform="matrix(1.026499,0,0,1.025401,-8.896582,-14.9155)"
       gradientUnits="userSpaceOnUse"
       xlink:href="#linearGradient6756"
       id="linearGradient4870"
       y2="461.30261"
       x2="800.01562"
       y1="115.21933"
       x1="99.984344" />
    <linearGradient
       gradientTransform="matrix(0.883467,0,0,0.966835,50.2821,0.472313)"
       gradientUnits="userSpaceOnUse"
       xlink:href="#linearGradient7655"
       id="linearGradient11321"
       y2="585.9975"
       x2="841.18512"
       y1="585.9975"
       x1="225.46132" />
    <linearGradient
       gradientTransform="matrix(0.883467,0,0,0.966835,46.2821,0.472313)"
       gradientUnits="userSpaceOnUse"
       xlink:href="#linearGradient7655"
       id="linearGradient11319"
       y2="61.360378"
       x2="852.37842"
       y1="61.360378"
       x1="148.54547" />
    <linearGradient
       gradientTransform="matrix(1.026499,0,0,1.025401,-8.896582,-14.9155)"
       gradientUnits="userSpaceOnUse"
       xlink:href="#linearGradient3228"
       id="linearGradient11317"
       y2="467.69955"
       x2="838.95087"
       y1="127.69955"
       x1="61.0625" />
    <linearGradient
       gradientTransform="matrix(1.026499,0,0,1.025401,-8.896582,-14.9155)"
       gradientUnits="userSpaceOnUse"
       xlink:href="#linearGradient6756"
       id="linearGradient11315"
       y2="461.30261"
       x2="800.01562"
       y1="115.21933"
       x1="99.984344" />
    <linearGradient
       gradientTransform="translate(2.206592e-5,1.857606e-4)"
       gradientUnits="userSpaceOnUse"
       xlink:href="#linearGradient6756"
       id="linearGradient8635"
       y2="461.30261"
       x2="800.01562"
       y1="115.21933"
       x1="99.984344" />
    <linearGradient
       gradientTransform="translate(2.206592e-5,1.857606e-4)"
       gradientUnits="userSpaceOnUse"
       xlink:href="#linearGradient3228"
       id="linearGradient8630"
       y2="467.69955"
       x2="838.95087"
       y1="127.69955"
       x1="61.0625" />
    <linearGradient
       gradientTransform="matrix(0.860661,0,0,0.942885,57.93912,14.53609)"
       gradientUnits="userSpaceOnUse"
       xlink:href="#linearGradient7655"
       id="linearGradient8598"
       y2="585.9975"
       x2="841.18512"
       y1="585.9975"
       x1="225.46132" />
    <linearGradient
       gradientTransform="matrix(0.860661,0,0,0.942885,53.93912,14.53609)"
       gradientUnits="userSpaceOnUse"
       xlink:href="#linearGradient7655"
       id="linearGradient8596"
       y2="61.360378"
       x2="852.37842"
       y1="61.360378"
       x1="148.54547" />
    <linearGradient
       gradientTransform="matrix(0.860661,0,0,0.942885,57.93912,14.53609)"
       gradientUnits="userSpaceOnUse"
       xlink:href="#linearGradient7655"
       id="linearGradient7349"
       y2="585.9975"
       x2="841.18512"
       y1="585.9975"
       x1="225.46132" />
    <linearGradient
       gradientTransform="matrix(0.860661,0,0,0.942885,53.93912,14.53609)"
       gradientUnits="userSpaceOnUse"
       xlink:href="#linearGradient7655"
       id="linearGradient7347"
       y2="61.360378"
       x2="852.37842"
       y1="61.360378"
       x1="148.54547" />
    <linearGradient
       gradientTransform="translate(4,0)"
       gradientUnits="userSpaceOnUse"
       xlink:href="#linearGradient7655"
       id="linearGradient6424"
       y2="585.9975"
       x2="841.18512"
       y1="585.9975"
       x1="225.46132" />
    <linearGradient
       gradientUnits="userSpaceOnUse"
       xlink:href="#linearGradient7655"
       id="linearGradient3744"
       y2="61.360378"
       x2="852.37842"
       y1="61.360378"
       x1="148.54547" />
    <linearGradient
       id="linearGradient3228">
      <stop
         id="stop3230"
         offset="0"
         style="stop-color:#d30013;stop-opacity:1" />
      <stop
         id="stop3236"
         offset="0.5"
         style="stop-color:#ff1712;stop-opacity:1" />
      <stop
         id="stop3232"
         offset="1"
         style="stop-color:#d30013;stop-opacity:1" />
    </linearGradient>
    <linearGradient
       id="linearGradient6756">
      <stop
         id="stop6758"
         offset="0"
         style="stop-color:#f88c00;stop-opacity:1" />
      <stop
         id="stop6760"
         offset="0.5"
         style="stop-color:#fdff02;stop-opacity:1" />
      <stop
         id="stop6762"
         offset="1"
         style="stop-color:#ffa517;stop-opacity:1" />
    </linearGradient>
    <linearGradient
       id="linearGradient7655">
      <stop
         id="stop7657"
         offset="0"
         style="stop-color:#0039f5;stop-opacity:1" />
      <stop
         id="stop3746"
         offset="0.5"
         style="stop-color:#16e3fe;stop-opacity:1" />
      <stop
         id="stop7659"
         offset="1"
         style="stop-color:#0f47ff;stop-opacity:1" />
    </linearGradient>
    <linearGradient
       id="linearGradient3170">
      <stop
         id="stop3172"
         offset="0"
         style="stop-color:black;stop-opacity:1" />
      <stop
         id="stop3174"
         offset="1"
         style="stop-color:black;stop-opacity:0" />
    </linearGradient>
    <linearGradient
       id="linearGradient3178">
      <stop
         id="stop3180"
         offset="0"
         style="stop-color:white;stop-opacity:1" />
      <stop
         id="stop4061"
         offset="0.5"
         style="stop-color:white;stop-opacity:0.76288658" />
      <stop
         id="stop3182"
         offset="1"
         style="stop-color:white;stop-opacity:0.45360824" />
    </linearGradient>
    <inkscape:perspective
       inkscape:persp3d-origin="300 : 400 : 1"
       inkscape:vp_z="700 : 600 : 1"
       inkscape:vp_y="0 : 1000 : 0"
       inkscape:vp_x="-50 : 600 : 1"
       id="perspective2417"
       sodipodi:type="inkscape:persp3d" />
    <linearGradient
       inkscape:collect="always"
       xlink:href="#linearGradient3228"
       id="linearGradient2535"
       gradientUnits="userSpaceOnUse"
       gradientTransform="matrix(0.6859088,0,0,0.76739,22.597797,210.55742)"
       x1="61.0625"
       y1="127.69955"
       x2="838.95087"
       y2="467.69955" />
    <linearGradient
       inkscape:collect="always"
       xlink:href="#linearGradient6756"
       id="linearGradient2540"
       gradientUnits="userSpaceOnUse"
       gradientTransform="matrix(0.6859088,0,0,0.76739,22.597797,210.55742)"
       x1="99.984344"
       y1="115.21933"
       x2="800.01562"
       y2="461.30261" />
    <filter
       inkscape:collect="always"
       id="filter3230">
      <feGaussianBlur
         inkscape:collect="always"
         stdDeviation="8.1944657"
         id="feGaussianBlur3232" />
    </filter>
    <filter
       inkscape:collect="always"
       id="filter3319">
      <feGaussianBlur
         inkscape:collect="always"
         stdDeviation="2.9050252"
         id="feGaussianBlur3321" />
    </filter>
    <filter
       inkscape:collect="always"
       id="filter3362">
      <feGaussianBlur
         inkscape:collect="always"
         stdDeviation="8.1663094"
         id="feGaussianBlur3364" />
    </filter>
    <filter
       inkscape:collect="always"
       id="filter3376">
      <feGaussianBlur
         inkscape:collect="always"
         stdDeviation="5.614063"
         id="feGaussianBlur3378" />
    </filter>
    <linearGradient
       inkscape:collect="always"
       xlink:href="#linearGradient6756"
       id="linearGradient3445"
       gradientUnits="userSpaceOnUse"
       gradientTransform="matrix(0.6859088,0,0,0.76739,22.597797,210.55742)"
       x1="99.984344"
       y1="115.21933"
       x2="800.01562"
       y2="461.30261" />
    <linearGradient
       inkscape:collect="always"
       xlink:href="#linearGradient3228"
       id="linearGradient3447"
       gradientUnits="userSpaceOnUse"
       gradientTransform="matrix(0.6859088,0,0,0.76739,22.597797,210.55742)"
       x1="61.0625"
       y1="127.69955"
       x2="838.95087"
       y2="467.69955" />
  </defs>
  <sodipodi:namedview
     id="base"
     pagecolor="#ffffff"
     bordercolor="#666666"
     borderopacity="1.0"
     gridtolerance="10000"
     guidetolerance="10"
     objecttolerance="10"
     inkscape:pageopacity="0.0"
     inkscape:pageshadow="2"
     inkscape:zoom="0.9899495"
     inkscape:cx="426.60585"
     inkscape:cy="308.19588"
     inkscape:document-units="px"
     inkscape:current-layer="layer1"
     showgrid="false"
     inkscape:window-width="1280"
     inkscape:window-height="998"
     inkscape:window-x="0"
     inkscape:window-y="0" />
  <metadata
     id="metadata7">
    <rdf:RDF>
      <cc:Work
         rdf:about="">
        <dc:format>image/svg+xml</dc:format>
        <dc:type
           rdf:resource="http://purl.org/dc/dcmitype/StillImage" />
        <dc:title>Super Jesus</dc:title>
        <dc:date />
        <dc:creator>
          <cc:Agent>
            <dc:title />
          </cc:Agent>
        </dc:creator>
        <dc:rights>
          <cc:Agent>
            <dc:title />
          </cc:Agent>
        </dc:rights>
        <dc:publisher>
          <cc:Agent>
            <dc:title />
          </cc:Agent>
        </dc:publisher>
        <dc:identifier />
        <dc:source />
        <dc:relation />
        <dc:language />
        <dc:subject>
          <rdf:Bag />
        </dc:subject>
        <dc:coverage />
        <dc:description />
        <dc:contributor>
          <cc:Agent>
            <dc:title />
          </cc:Agent>
        </dc:contributor>
        <cc:license
           rdf:resource="http://creativecommons.org/licenses/publicdomain/" />
      </cc:Work>
      <cc:License
         rdf:about="http://creativecommons.org/licenses/publicdomain/">
        <cc:permits
           rdf:resource="http://creativecommons.org/ns#Reproduction" />
        <cc:permits
           rdf:resource="http://creativecommons.org/ns#Distribution" />
        <cc:permits
           rdf:resource="http://creativecommons.org/ns#DerivativeWorks" />
      </cc:License>
    </rdf:RDF>
  </metadata>
  <g
     inkscape:label="Layer 1"
     inkscape:groupmode="layer"
     id="layer1"
     transform="translate(-47.43264,-290.58143)">
    <g
       id="layer3"
       transform="translate(-126.00405,157.64111)" />
    <g
       id="layer4"
       transform="translate(-126.00405,157.64111)" />
    <g
       id="layer5"
       transform="translate(-126.00405,157.64111)" />
    <g
       id="g3436"
       transform="translate(14.313325,9.6478256)">
      <path
         id="Yellow_Background"
         style="fill:url(#linearGradient3445);fill-opacity:1;fill-rule:nonzero;stroke:none;stroke-width:5;stroke-linecap:round;stroke-linejoin:round;stroke-miterlimit:4;stroke-dasharray:none;stroke-opacity:1"
         d="M 384.84919,316.97356 C 293.76748,318.50902 169.54268,328.59319 156.05282,335.97324 C 139.99619,344.40949 90.691308,420.44975 90.008056,434.45396 C 91.921658,456.04894 287.14667,684.1196 389.62497,740.01858 C 481.04022,683.7081 677.53015,463.47412 679.39112,442.52528 C 678.70519,432.27827 647.21429,364.63945 618.26446,344.50629 C 605.81435,335.34126 460.5035,321.70319 384.84919,316.97356 z" />
      <path
         id="Black_Shadow"
         style="fill:#000000;fill-opacity:1;stroke:none;stroke-width:5;stroke-linecap:round;stroke-linejoin:round;stroke-miterlimit:4;stroke-dasharray:none;stroke-opacity:1"
         d="M 389.86899,300.39681 C 298.78728,301.93227 156.9002,314.3982 143.41034,321.77824 C 127.35372,330.21449 55.738564,427.0916 55.055318,441.09581 C 56.968919,462.69079 288.44811,715.38682 390.9264,771.28578 C 482.34166,714.97531 716.94493,465.38033 718.80599,444.43148 C 718.1201,434.18447 673.61477,346.65594 644.66494,326.52277 C 632.21482,317.35775 496.938,303.11335 390.9264,300.39681 C 390.57079,300.40249 390.22618,300.39078 389.86899,300.39681 z M 335.67656,342.12377 C 324.46697,343.90394 314.38301,345.92596 306.25199,347.61416 C 295.62969,349.72623 245.27039,364.60906 243.7426,372.76637 C 243.05439,379.47449 286.68423,441.80184 297.85369,441.46875 C 308.42342,429.77511 367.6526,417.61115 406.7266,428.70618 C 411.71848,435.9151 425.19158,568.68675 405.18114,602.88621 C 392.83039,621.80695 358.77682,629.32992 339.62734,612.82514 C 325.76107,593.22147 330.47008,560.57313 335.1827,546.89607 C 333.29847,539.52786 268.13111,534.10149 242.95535,536.27638 C 240.60457,557.46897 246.65303,579.27715 254.23539,592.05045 C 255.45874,594.02843 256.98784,596.32513 258.83108,598.86682 C 184.65613,525.05707 112.34164,440.28117 111.48459,433.96866 C 110.78153,423.33625 154.67209,368.81497 165.31099,363.62952 C 171.00655,358.13611 265.32958,346.58688 335.67656,342.12377 z M 437.24924,342.39311 C 509.7419,347.85055 611.61459,362.95678 618.1076,367.60747 C 633.42304,381.6729 659.77364,424.81085 661.03452,437.13859 C 663.01683,444.66233 570.01874,546.4068 489.85555,623.3146 C 496.73317,612.00884 501.29727,599.05199 504.61867,586.29073 C 508.00891,573.50342 516.08559,514.45929 515.27415,497.96797 C 515.08862,467.29742 515.05733,367.91053 508.70598,361.18475 C 499.53267,354.89267 460.92608,345.87743 437.24924,342.39311 z M 318.53426,655.01384 C 359.53229,684.42073 384.28443,686.14002 455.55063,655.34533 C 428.34454,679.96537 405.01676,698.86326 390.9264,706.12625 C 372.78525,699.01123 347.0856,679.95738 318.53426,655.01384 z" />
      <path
         id="White_Highlight"
         style="fill:#ffffff;fill-opacity:1;stroke:none;stroke-width:5;stroke-linecap:round;stroke-linejoin:round;stroke-miterlimit:4;stroke-dasharray:none;stroke-opacity:1"
         d="M 382.24632,292.25149 C 291.16461,293.78695 149.27752,306.25289 135.78766,313.63294 C 119.73104,322.06917 48.115892,418.94629 47.43264,432.9505 C 49.346246,454.54547 279.18213,678.44348 381.66043,734.34244 C 473.07568,678.03197 709.32231,457.23501 711.18323,436.28618 C 710.49734,426.03916 665.99209,338.51063 637.04226,318.37746 C 624.59217,309.21244 489.31533,294.96803 383.30372,292.25149 C 382.94811,292.25718 382.6035,292.24548 382.24632,292.25149 z M 328.05388,333.97846 C 316.84429,335.75862 306.76033,337.78064 298.62932,339.46885 C 288.00701,341.58092 237.64771,356.46375 236.11992,364.62105 C 235.43171,371.32917 279.06155,433.65652 290.23102,433.32344 C 300.80076,421.62979 360.02993,409.46583 399.10393,420.56086 C 404.0958,427.76979 417.5689,560.54143 397.55848,594.74089 C 385.20771,613.66163 351.15414,621.1846 332.00466,604.67983 C 318.1384,585.07615 322.8474,552.42782 327.56003,538.75076 C 325.67579,531.38256 260.50843,525.95617 235.33268,528.13106 C 232.98189,549.32366 239.03035,571.13184 246.61272,583.90513 C 247.83606,585.88313 249.36516,588.17981 251.2084,590.72151 C 203.06209,576.5809 93.563836,437.81864 92.706778,431.50612 C 92.003728,420.87371 152.62698,347.40985 163.26588,342.2244 C 168.96144,336.73099 257.70691,338.44157 328.05388,333.97846 z M 400.80916,324.7765 C 473.3018,330.23393 616.07667,344.39305 622.56964,349.04372 C 637.88509,363.10916 659.58772,408.14137 660.84862,420.46911 C 662.8309,427.99285 562.39604,538.26149 482.23288,615.16929 C 489.1105,603.86353 427.67341,581.43538 430.99481,568.67412 C 434.38506,555.88682 424.48599,328.26082 400.80916,324.7765 z M 310.91158,646.86851 C 324.15393,655.24205 352.67902,638.60082 360.61001,638.99551 C 367.09863,640.76835 425.96206,659.14403 447.92795,647.20001 C 420.72186,671.82005 397.39409,690.71795 383.30372,697.98093 C 365.16257,717.38553 317.15266,686.019 310.91158,646.86851 z" />
      <path
         id="Red_Shield"
         style="fill:url(#linearGradient3447);fill-opacity:1;stroke:#000000;stroke-width:2.17651796;stroke-linecap:round;stroke-linejoin:round;stroke-miterlimit:4;stroke-dasharray:none;stroke-opacity:1"
         d="M 384.38876,294.4522 C 293.30704,295.98766 151.41997,308.45359 137.9301,315.83364 C 121.87348,324.26988 50.258334,421.147 49.575084,435.15119 C 51.488688,456.74617 282.96788,709.4422 385.44617,765.34117 C 476.86142,709.0307 711.46471,459.43571 713.32571,438.48687 C 712.63975,428.23987 668.13454,340.71132 639.18471,320.57817 C 626.7346,311.41314 491.45777,297.16873 385.44617,294.4522 C 385.09056,294.45788 384.74594,294.44617 384.38876,294.4522 z M 330.19632,336.17915 C 318.98673,337.95933 308.90277,339.98135 300.77177,341.66955 C 290.14945,343.78162 239.79016,358.66445 238.26236,366.82175 C 237.57416,373.52988 281.204,435.85722 292.37345,435.52413 C 302.9432,423.8305 362.17237,411.66654 401.24636,422.76157 C 406.23825,429.97049 419.71135,562.74214 399.70092,596.94159 C 387.35016,615.86234 353.29658,623.38531 334.1471,606.88053 C 320.28085,587.27686 324.98984,554.62853 329.70248,540.95146 C 327.81823,533.58325 262.65088,528.15687 237.47511,530.33177 C 235.12434,551.52437 241.1728,573.33254 248.75516,586.10584 C 249.9785,588.08383 251.5076,590.38052 253.35084,592.92222 C 179.1759,519.11246 106.86141,434.33656 106.00436,428.02406 C 105.3013,417.39163 149.19185,362.87036 159.83076,357.68491 C 165.52631,352.1915 259.84934,340.64227 330.19632,336.17915 z M 431.76901,336.4485 C 504.26167,341.90593 606.13436,357.01217 612.62737,361.66285 C 627.94282,375.72828 654.2934,418.86624 655.55428,431.19397 C 657.53659,438.71771 564.53851,540.4622 484.37532,617.36999 C 491.25294,606.06422 495.81703,593.10737 499.13845,580.34611 C 502.52869,567.5588 510.60535,508.51467 509.79392,492.02335 C 509.60839,461.35281 509.57709,361.96593 503.22575,355.24014 C 494.05244,348.94806 455.44585,339.93281 431.76901,336.4485 z M 313.05403,649.06922 C 359.68084,689.98496 421.11706,662.93216 450.07039,649.40072 C 422.86431,674.02075 399.53654,692.91865 385.44617,700.18165 C 367.30501,693.06662 341.60537,674.01278 313.05403,649.06922 z" />
      <path
         id="path1952"
         style="fill:none;fill-opacity:1;fill-rule:evenodd;stroke:none;stroke-width:0.9999994px;stroke-linecap:butt;stroke-linejoin:miter;stroke-opacity:1"
         d="M 147.37351,326.46872 C 269.67894,277.35326 430.26346,279.9017 576.79318,326.46872" />
      <path
         id="path3337"
         d="M 620.59375,316.34375 C 620.62626,316.44739 620.65141,316.30082 620.59375,316.34375 z"
         style="opacity:0.66500005;fill:#f1dad4;fill-opacity:1;stroke:none;stroke-width:2.17651796;stroke-linecap:round;stroke-linejoin:round;stroke-miterlimit:4;stroke-dasharray:none;stroke-opacity:1;filter:url(#filter3319)" />
      <path
         d="M 313.40625,299.40625 C 310.97917,299.54167 308.55208,299.67708 306.125,299.8125 C 251.97132,302.8773 197.61084,307.10013 144.21875,316.0625 C 130.67201,321.3058 123.99262,335.45536 114.125,345.1875 C 92.199869,371.84688 71.532766,400.05036 54.9375,430.34375 C 52.93763,437.19591 60.405697,441.60568 62.9375,447.21875 C 67.429762,453.59685 72.198492,459.84592 77.1875,465.9375 C 72.030702,457.40135 62.766589,449.73165 62.09375,439.125 C 63.888451,429.13732 71.417544,421.53425 75.8125,412.65625 C 96.393252,380.65793 119.47485,350.08959 145.71875,322.5 C 158.29568,311.63848 175.91139,313.28306 191.25,310.25 C 231.7347,304.87443 272.63489,302.19568 313.40625,299.40625 z M 291.46875,349.6875 L 290.65625,349.75 C 274.0522,350.91371 257.44595,355.30286 243.4375,364.5 C 240.58833,367.0644 245.84397,370.89172 246.4375,373.84375 C 253.38813,386.60106 262.07851,398.34567 271.4375,409.40625 C 262.76186,397.77178 253.17491,385.74878 249.78125,371.46875 C 253.13815,361.76346 264.81111,360.5815 272.6875,356.15625 C 278.88959,353.77215 285.11033,351.62785 291.46875,349.6875 z M 633.1875,378.90625 C 643.9677,394.8716 655.49516,411.24238 659.84375,430.28125 C 657.40404,442.3425 646.45919,449.82649 639.9375,459.625 C 602.06534,504.83127 560.01107,546.47745 519.375,589 C 516.72696,594.14126 515.72547,599.6663 513.875,605.125 C 566.96543,552.22352 620.10226,499.23362 666.34375,440.53125 C 669.54354,433.49089 662.76934,427.1084 660.75,420.65625 C 653.31893,405.68651 643.48855,391.43772 633.1875,378.90625 z M 410.25,430.125 C 409.80494,430.16428 409.43768,430.28433 409.21875,430.5 C 415.23864,475.17543 418.55221,520.90476 413.3125,565.90625 C 412.02815,581.26471 408.66593,597.9287 396.1875,608.28125 C 389.80083,614.15733 381.33975,617.29914 372.90625,618.90625 C 391.58046,621.63078 413.4565,610.77785 417.40625,591.3125 C 425.99627,559.92084 423.04376,526.74645 422.5,494.5 C 421.27871,473.29155 420.09356,451.51226 414.78125,431.125 C 413.6535,430.57365 411.58518,430.00717 410.25,430.125 z M 243.5625,535.03125 C 240.31313,537.44168 243.45676,542.76133 242.71875,546.21875 C 243.28955,558.37682 245.17059,572.20475 255.40625,580.28125 C 250.99128,566.5508 248.31051,551.34032 251.65625,537.1875 C 256.97689,534.17934 252.01382,535.18558 248.21875,535.03125 C 246.67278,535.04469 245.08632,534.96437 243.5625,535.03125 z M 437.65625,675.40625 L 436.71875,675.71875 C 425.74633,678.93496 414.52319,682.95099 406.53125,691.5 C 400.44101,696.24793 393.87868,700.29676 387.9375,705.125 C 391.57891,708.20113 396.91636,708.67401 400.15625,704.65625 C 413.20786,695.64009 425.82425,685.96836 437.65625,675.40625 z"
         id="path3412"
         style="opacity:0.98557691;fill:#fdbf93;fill-opacity:1;stroke:none;stroke-width:2.17651796;stroke-linecap:round;stroke-linejoin:round;stroke-miterlimit:4;stroke-dasharray:none;stroke-opacity:1;filter:url(#filter3376)"
         inkscape:original="M 313.40625 299.40625 C 310.97917 299.54167 308.55208 299.67708 306.125 299.8125 C 251.97132 302.8773 197.61084 307.10013 144.21875 316.0625 C 130.67201 321.3058 123.99262 335.45536 114.125 345.1875 C 92.199869 371.84688 71.532766 400.05036 54.9375 430.34375 C 52.93763 437.19591 60.405697 441.60568 62.9375 447.21875 C 67.429762 453.59685 72.198492 459.84592 77.1875 465.9375 C 72.030702 457.40135 62.766589 449.73165 62.09375 439.125 C 63.888451 429.13732 71.417544 421.53425 75.8125 412.65625 C 96.393252 380.65793 119.47485 350.08959 145.71875 322.5 C 158.29568 311.63848 175.91139 313.28306 191.25 310.25 C 231.7347 304.87443 272.63489 302.19568 313.40625 299.40625 z M 291.46875 349.6875 L 290.65625 349.75 C 274.0522 350.91371 257.44595 355.30286 243.4375 364.5 C 240.58833 367.0644 245.84397 370.89172 246.4375 373.84375 C 253.38813 386.60106 262.07851 398.34567 271.4375 409.40625 C 262.76186 397.77178 253.17491 385.74878 249.78125 371.46875 C 253.13815 361.76346 264.81111 360.5815 272.6875 356.15625 C 278.88959 353.77215 285.11033 351.62785 291.46875 349.6875 z M 633.1875 378.90625 C 643.9677 394.8716 655.49516 411.24238 659.84375 430.28125 C 657.40404 442.3425 646.45919 449.82649 639.9375 459.625 C 602.06534 504.83127 560.01107 546.47745 519.375 589 C 516.72696 594.14126 515.72547 599.6663 513.875 605.125 C 566.96543 552.22352 620.10226 499.23362 666.34375 440.53125 C 669.54354 433.49089 662.76934 427.1084 660.75 420.65625 C 653.31893 405.68651 643.48855 391.43772 633.1875 378.90625 z M 410.25 430.125 C 409.80494 430.16428 409.43768 430.28433 409.21875 430.5 C 415.23864 475.17543 418.55221 520.90476 413.3125 565.90625 C 412.02815 581.26471 408.66593 597.9287 396.1875 608.28125 C 389.80083 614.15733 381.33975 617.29914 372.90625 618.90625 C 391.58046 621.63078 413.4565 610.77785 417.40625 591.3125 C 425.99627 559.92084 423.04376 526.74645 422.5 494.5 C 421.27871 473.29155 420.09356 451.51226 414.78125 431.125 C 413.6535 430.57365 411.58518 430.00717 410.25 430.125 z M 243.5625 535.03125 C 240.31313 537.44168 243.45676 542.76133 242.71875 546.21875 C 243.28955 558.37682 245.17059 572.20475 255.40625 580.28125 C 250.99128 566.5508 248.31051 551.34032 251.65625 537.1875 C 256.97689 534.17934 252.01382 535.18558 248.21875 535.03125 C 246.67278 535.04469 245.08632 534.96437 243.5625 535.03125 z M 437.65625 675.40625 L 436.71875 675.71875 C 425.74633 678.93496 414.52319 682.95099 406.53125 691.5 C 400.44101 696.24793 393.87868 700.29676 387.9375 705.125 C 391.57891 708.20113 396.91636 708.67401 400.15625 704.65625 C 413.20786 695.64009 425.82425 685.96836 437.65625 675.40625 z "
         inkscape:radius="0"
         sodipodi:type="inkscape:offset" />
    </g>
  </g>
</svg>
